<svg xmlns="http://www.w3.org/2000/svg" width="23.932" height="23.933" viewBox="0 0 23.932 23.933">
  <g id="Group_18" data-name="Group 18" transform="translate(-1409.502 -704.726)">
    <g id="Group_14" data-name="Group 14" transform="translate(1409.502 704.726)">
      <path id="Path_36" data-name="Path 36" d="M1430,705.914h-14.683a4.629,4.629,0,0,0-4.624,4.625v14.683a4.629,4.629,0,0,0,4.624,4.625H1430a4.631,4.631,0,0,0,4.626-4.625V710.539A4.631,4.631,0,0,0,1430,705.914Zm1.328,2.759.528,0v4.056l-4.042.014-.013-4.056Zm-12.084,6.751a4.2,4.2,0,1,1-.8,2.456A4.21,4.21,0,0,1,1419.24,715.425Zm13.051,9.8a2.3,2.3,0,0,1-2.3,2.294h-14.683a2.3,2.3,0,0,1-2.294-2.294v-9.8h3.573a6.545,6.545,0,1,0,12.123,0h3.575Z" transform="translate(-1410.69 -705.914)"/>
    </g>
  </g>
</svg>
