<svg xmlns="http://www.w3.org/2000/svg" width="24.067" height="24.067" viewBox="0 0 24.067 24.067">
  <g id="Group_19" data-name="Group 19" transform="translate(-209.481 -144.592)">
    <circle id="Ellipse_2" data-name="Ellipse 2" cx="12.034" cy="12.034" r="12.034" transform="translate(209.481 144.592)"/>
    <path id="Path_37" data-name="Path 37" d="M217.931,155.69h2.331v7.487h-2.331Zm1.165-3.72a1.349,1.349,0,1,1-1.351,1.348,1.349,1.349,0,0,1,1.351-1.348" transform="translate(-1.463 -1.306)" fill="#fff"/>
    <path id="Path_38" data-name="Path 38" d="M222.577,156.45h2.232v1.025h.03a2.448,2.448,0,0,1,2.2-1.21c2.356,0,2.791,1.55,2.791,3.566v4.106h-2.326V160.3c0-.869-.017-1.986-1.21-1.986-1.211,0-1.4.946-1.4,1.922v3.7h-2.326Z" transform="translate(-2.318 -2.066)" fill="#fff"/>
  </g>
</svg>
