<svg xmlns="http://www.w3.org/2000/svg" viewBox="0 0 1661.71 1069.37"><defs><style>.cls-1{fill:none;stroke:#000;stroke-miterlimit:10;stroke-width:24px;}</style></defs><g id="LOGO"><polygon class="cls-1" points="79.8 874.59 1587.17 874.59 833.48 18.16 79.8 874.59"/><path class="cls-1" d="M1327.91,806.65l186.46-.2c-77.23-87.66-497.08-564.3-553-627.74L408.28,806.65h186.4l182-207.83,184.44,181L1142.47,596Z" transform="translate(-129.29 -8.23)"/><polygon class="cls-1" points="706.91 523.99 957.07 523.99 831.73 381.94 706.91 523.99"/></g><g id="TEXT"><path id="a" d="M201.73,1074.8l-4.66-15.24c-.21-.42-.47-.62-.78-.62H158c-.31,0-.57.2-.78.62l-4.51,15.24a1.93,1.93,0,0,1-2,1.55H131a1.75,1.75,0,0,1-1.4-.54,1.7,1.7,0,0,1-.15-1.63L163,969a2,2,0,0,1,2-1.55h24.42a2,2,0,0,1,2,1.55l33.59,105.14a1.72,1.72,0,0,1,.16.77c0,.93-.57,1.4-1.71,1.4H203.76A2,2,0,0,1,201.73,1074.8ZM163.47,1042h27.38c.62,0,.83-.31.62-.93l-14-46.19c-.1-.42-.26-.6-.47-.54a.72.72,0,0,0-.46.54l-13.69,46.19C162.75,1041.67,163,1042,163.47,1042Z" transform="translate(-129.29 -8.23)"/><path id="s" d="M337.82,1073.63a32.06,32.06,0,0,1-14.39-11.35,29.7,29.7,0,0,1-5.06-17.19v-3.42a1.84,1.84,0,0,1,.55-1.32,1.8,1.8,0,0,1,1.32-.55H338a1.8,1.8,0,0,1,1.32.55,1.84,1.84,0,0,1,.55,1.32V1044q0,6.23,5.75,10.5t15.55,4.28q8.25,0,12.29-3.5a11,11,0,0,0,4-8.63,8.73,8.73,0,0,0-2.48-6.3,22.12,22.12,0,0,0-6.77-4.51c-2.85-1.29-7.39-3.09-13.61-5.36a133.38,133.38,0,0,1-17.65-7.32A35.42,35.42,0,0,1,324.83,1013q-4.9-6.47-4.9-15.94a28.09,28.09,0,0,1,4.82-16.33A30.77,30.77,0,0,1,338.13,970a49.1,49.1,0,0,1,19.75-3.73,50.45,50.45,0,0,1,21.07,4.2,34.39,34.39,0,0,1,14.47,11.74,30.08,30.08,0,0,1,5.21,17.5V1002a1.84,1.84,0,0,1-.55,1.32,1.81,1.81,0,0,1-1.32.54H378.87a1.8,1.8,0,0,1-1.32-.54A1.83,1.83,0,0,1,377,1002v-1.25a14.13,14.13,0,0,0-5.37-11.12q-5.37-4.57-14.7-4.59-7.31,0-11.43,3.11a10.16,10.16,0,0,0-4.12,8.56,9.32,9.32,0,0,0,2.41,6.53A21.19,21.19,0,0,0,351,1008q4.74,2.1,14.69,5.68a180.66,180.66,0,0,1,17.34,7.15,34.39,34.39,0,0,1,11.36,9.26q5,6.14,5,15.94,0,14.61-10.73,23.09t-29.08,8.48A55.36,55.36,0,0,1,337.82,1073.63Z" transform="translate(-129.29 -8.23)"/><path id="i" d="M505.54,1075.81a1.8,1.8,0,0,1-.54-1.33V969.35a1.84,1.84,0,0,1,1.87-1.86h18.19a1.86,1.86,0,0,1,1.87,1.86v105.13a1.77,1.77,0,0,1-.55,1.33,1.8,1.8,0,0,1-1.32.54H506.87A1.83,1.83,0,0,1,505.54,1075.81Z" transform="translate(-129.29 -8.23)"/><path id="m" d="M708.26,967.49h18.2a1.86,1.86,0,0,1,1.87,1.86v105.13a1.77,1.77,0,0,1-.55,1.33,1.8,1.8,0,0,1-1.32.54h-18.2a1.84,1.84,0,0,1-1.86-1.87V1005.9c0-.41-.11-.62-.31-.62s-.42.16-.62.47L689,1031.56a2.44,2.44,0,0,1-2.18,1.25h-9.17a2.44,2.44,0,0,1-2.18-1.25L659,1005.75c-.21-.31-.41-.44-.62-.39s-.31.29-.31.7v68.42a1.8,1.8,0,0,1-.54,1.33,1.83,1.83,0,0,1-1.33.54H638a1.8,1.8,0,0,1-1.32-.54,1.77,1.77,0,0,1-.55-1.33V969.35a1.86,1.86,0,0,1,1.87-1.86h18.19a2.45,2.45,0,0,1,2.18,1.24L681.67,1005q.47.93.93,0l23.49-36.24A2.43,2.43,0,0,1,708.26,967.49Z" transform="translate(-129.29 -8.23)"/><path id="m-2" data-name="m" d="M1031,967.49h18.2a1.84,1.84,0,0,1,1.86,1.86v105.13a1.84,1.84,0,0,1-1.86,1.87H1031a1.84,1.84,0,0,1-1.86-1.87V1005.9c0-.41-.11-.62-.32-.62s-.42.16-.62.47l-16.48,25.81a2.46,2.46,0,0,1-2.18,1.25h-9.18a2.42,2.42,0,0,1-2.17-1.25l-16.49-25.81c-.21-.31-.41-.44-.62-.39s-.31.29-.31.7v68.42a1.77,1.77,0,0,1-.55,1.33,1.8,1.8,0,0,1-1.32.54h-18.2a1.84,1.84,0,0,1-1.86-1.87V969.35a1.84,1.84,0,0,1,1.86-1.86h18.2a2.46,2.46,0,0,1,2.18,1.24l23.33,36.24c.3.62.62.62.93,0l23.48-36.24A2.46,2.46,0,0,1,1031,967.49Z" transform="translate(-129.29 -8.23)"/><path id="e" d="M1235.24,985.76a1.77,1.77,0,0,1-1.32.55h-51a.68.68,0,0,0-.77.77v24.11a.69.69,0,0,0,.77.78h33.44a1.8,1.8,0,0,1,1.32.54,1.82,1.82,0,0,1,.55,1.32v15.09a1.86,1.86,0,0,1-1.87,1.86h-33.44a.69.69,0,0,0-.77.78v25.2a.69.69,0,0,0,.77.78h51a1.8,1.8,0,0,1,1.32.54,1.77,1.77,0,0,1,.55,1.32v15.08a1.77,1.77,0,0,1-.55,1.33,1.8,1.8,0,0,1-1.32.54h-71.85a1.84,1.84,0,0,1-1.86-1.87V969.35a1.84,1.84,0,0,1,1.86-1.86h71.85a1.86,1.86,0,0,1,1.87,1.86v15.09A1.77,1.77,0,0,1,1235.24,985.76Z" transform="translate(-129.29 -8.23)"/><path id="h" d="M1399.63,968a1.83,1.83,0,0,1,1.32-.54h18.2a1.8,1.8,0,0,1,1.32.54,1.84,1.84,0,0,1,.55,1.32v105.13a1.86,1.86,0,0,1-1.87,1.87H1401a1.83,1.83,0,0,1-1.32-.54,1.8,1.8,0,0,1-.54-1.33v-42.92a.69.69,0,0,0-.78-.78h-34.37a.69.69,0,0,0-.77.78v42.92a1.86,1.86,0,0,1-1.87,1.87h-18.2a1.84,1.84,0,0,1-1.86-1.87V969.35a1.83,1.83,0,0,1,.54-1.32,1.8,1.8,0,0,1,1.32-.54h18.2a1.81,1.81,0,0,1,1.32.54,1.84,1.84,0,0,1,.55,1.32v41.84a.69.69,0,0,0,.77.78h34.37a.69.69,0,0,0,.78-.78V969.35A1.83,1.83,0,0,1,1399.63,968Z" transform="translate(-129.29 -8.23)"/><path id="t" d="M1605.54,968a1.8,1.8,0,0,1,.55,1.32v15.24a1.77,1.77,0,0,1-.55,1.33,1.8,1.8,0,0,1-1.32.54h-27.84a.68.68,0,0,0-.77.78v87.24a1.86,1.86,0,0,1-1.87,1.87h-18.2a1.84,1.84,0,0,1-1.86-1.87V987.24a.69.69,0,0,0-.78-.78h-27.06a1.86,1.86,0,0,1-1.87-1.87V969.35a1.84,1.84,0,0,1,.55-1.32,1.8,1.8,0,0,1,1.32-.54h78.38A1.8,1.8,0,0,1,1605.54,968Z" transform="translate(-129.29 -8.23)"/><path id="a-2" data-name="a" d="M1767.52,1074.8l-4.67-15.24c-.21-.42-.46-.62-.77-.62h-38.27c-.3,0-.57.2-.77.62l-4.51,15.24a2,2,0,0,1-2,1.55h-19.76a1.73,1.73,0,0,1-1.39-.54,1.69,1.69,0,0,1-.16-1.63L1728.8,969a1.94,1.94,0,0,1,2-1.55h24.41a2,2,0,0,1,2,1.55l33.58,105.14a1.6,1.6,0,0,1,.16.77c0,.93-.57,1.4-1.71,1.4h-19.75A1.94,1.94,0,0,1,1767.52,1074.8ZM1729.26,1042h27.37c.63,0,.83-.31.63-.93l-14-46.19c-.1-.42-.25-.6-.46-.54s-.36.23-.47.54l-13.68,46.19C1728.53,1041.67,1728.74,1042,1729.26,1042Z" transform="translate(-129.29 -8.23)"/></g></svg>